<?xml version="1.0" encoding="UTF-8" standalone="no"?>
<svg
   xmlns:dc="http://purl.org/dc/elements/1.1/"
   xmlns:cc="http://creativecommons.org/ns#"
   xmlns:rdf="http://www.w3.org/1999/02/22-rdf-syntax-ns#"
   xmlns:svg="http://www.w3.org/2000/svg"
   xmlns="http://www.w3.org/2000/svg"
   xmlns:sodipodi="http://sodipodi.sourceforge.net/DTD/sodipodi-0.dtd"
   xmlns:inkscape="http://www.inkscape.org/namespaces/inkscape"
   version="1.1"
   viewBox="0 0 44 44"
   enable-background="new 0 0 44 44"
   width="512px"
   height="512px"
   id="svg2"
   inkscape:version="0.92.1 r15371"
   sodipodi:docname="listaPedidoIcono.svg">
  <metadata
     id="metadata14">
    <rdf:RDF>
      <cc:Work
         rdf:about="">
        <dc:format>image/svg+xml</dc:format>
        <dc:type
           rdf:resource="http://purl.org/dc/dcmitype/StillImage" />
        <dc:title />
      </cc:Work>
    </rdf:RDF>
  </metadata>
  <defs
     id="defs12" />
  <sodipodi:namedview
     pagecolor="#ffffff"
     bordercolor="#666666"
     borderopacity="1"
     objecttolerance="10"
     gridtolerance="10"
     guidetolerance="10"
     inkscape:pageopacity="0"
     inkscape:pageshadow="2"
     inkscape:window-width="1366"
     inkscape:window-height="705"
     id="namedview10"
     showgrid="false"
     inkscape:zoom="0.4609375"
     inkscape:cx="-274.44068"
     inkscape:cy="247.32204"
     inkscape:window-x="-8"
     inkscape:window-y="-8"
     inkscape:window-maximized="1"
     inkscape:current-layer="svg2" />
  <g
     id="g4"
     style="fill:#1a1a1a">
    <g
       id="g6"
       style="fill:#1a1a1a">
      <path
         fill-rule="evenodd"
         d="m3,9c-1.657,0-3,1.343-3,3s1.343,3 3,3 3-1.343 3-3-1.343-3-3-3zm0,4c-0.552,0-1-0.447-1-1s0.448-1 1-1 1,0.447 1,1-0.448,1-1,1zm0,16c-1.657,0-3,1.343-3,3s1.343,3 3,3 3-1.343 3-3-1.343-3-3-3zm0,4c-0.552,0-1-0.447-1-1s0.448-1 1-1 1,0.447 1,1-0.448,1-1,1zm38-14h-30c-1.657,0-3,1.343-3,3s1.343,3 3,3h30c1.657,0 3-1.343 3-3s-1.343-3-3-3zm0,4h-30c-0.552,0-1-0.447-1-1s0.448-1 1-1h30c0.552,0 1,0.447 1,1s-0.448,1-1,1zm-30-8h18c1.657,0 3-1.343 3-3s-1.343-3-3-3h-18c-1.657,0-3,1.343-3,3s1.343,3 3,3zm0-4h18c0.552,0 1,0.447 1,1s-0.448,1-1,1h-18c-0.552,0-1-0.447-1-1s0.448-1 1-1zm-8,8c-1.657,0-3,1.343-3,3s1.343,3 3,3 3-1.343 3-3-1.343-3-3-3zm0,4c-0.552,0-1-0.447-1-1s0.448-1 1-1 1,0.447 1,1-0.448,1-1,1zm34,6h-26c-1.657,0-3,1.343-3,3s1.343,3 3,3h26c1.657,0 3-1.343 3-3s-1.343-3-3-3zm0,4h-26c-0.552,0-1-0.447-1-1s0.448-1 1-1h26c0.552,0 1,0.447 1,1s-0.448,1-1,1z"
         fill="#68c06f"
         id="path8"
         style="fill:#1a1a1a" />
    </g>
  </g>
</svg>
